<svg xmlns="http://www.w3.org/2000/svg" xmlns:xlink="http://www.w3.org/1999/xlink" width="166" height="70" viewBox="0 0 166 70">
  <defs>
    <clipPath id="clip-img_3">
      <rect width="166" height="70"/>
    </clipPath>
  </defs>
  <g id="img_3" clip-path="url(#clip-img_3)">
    <g id="Layer_2" data-name="Layer 2" transform="translate(166 -1) rotate(90)">
      <g id="Layer_1" data-name="Layer 1" transform="translate(0)">
        <path id="Path_131" data-name="Path 131" d="M53.347,60.392c0-4.819-1.263-12.7-2.587-25.089-1.284,12.387-2.527,20.27-2.567,25.089a72.635,72.635,0,0,0-10.75,1.728c.3-15.713.481-28.468.5-30.3,3.71,0,9.727-1.65,19.213-3.378-9.486-1.7-15.5-3.3-19.213-3.352,0-4.845-1.263-12.728-2.567-25.089-1.284,12.361-2.527,20.244-2.587,25.089-3.69,0-9.727,1.65-19.193,3.352,9.466,1.728,15.5,3.326,19.193,3.378,0,1.807.2,14.325.5,29.934a54.56,54.56,0,0,0-8.925-1.362c0-4.819-1.284-12.7-2.587-25.089-1.3,12.387-2.527,20.27-2.587,25.089-3.69,0-9.727,1.65-19.193,3.378,9.466,1.7,15.5,3.3,19.193,3.352,0,4.845,1.284,85.8,2.587,98.157,1.3-12.361,2.527-93.312,2.587-98.157a56.213,56.213,0,0,0,9-1.362c.481,25.4,1.223,56.883,2.006,64.216.782-7.385,1.524-39.126,2.006-64.582a69.771,69.771,0,0,0,10.81,1.728c0,4.845,1.284,85.8,2.567,98.157,1.324-12.361,2.547-93.312,2.587-98.157,3.69,0,9.727-1.65,19.213-3.352C63.074,62.042,57.038,60.444,53.347,60.392Z"/>
      </g>
    </g>
  </g>
</svg>
