<svg xmlns="http://www.w3.org/2000/svg" xmlns:xlink="http://www.w3.org/1999/xlink" width="88" height="32" viewBox="0 0 88 32">
  <defs>
    <clipPath id="clip-img_2">
      <rect width="88" height="32"/>
    </clipPath>
  </defs>
  <g id="img_2" clip-path="url(#clip-img_2)">
    <g id="Layer_2" data-name="Layer 2" transform="translate(88) rotate(90)">
      <g id="Layer_1" data-name="Layer 1" transform="translate(0)">
        <path id="Path_131" data-name="Path 131" d="M23.527,32.155c0-2.566-.557-6.763-1.141-13.358-.566,6.6-1.114,10.793-1.132,13.358a27.009,27.009,0,0,0-4.741.92c.133-8.366.212-15.157.221-16.133,1.636,0,4.29-.878,8.473-1.8-4.184-.906-6.837-1.757-8.473-1.785,0-2.58-.557-6.777-1.132-13.358-.566,6.582-1.114,10.779-1.141,13.358-1.627,0-4.29.878-8.464,1.785,4.175.92,6.837,1.771,8.464,1.8,0,.962.088,7.627.221,15.938a20.257,20.257,0,0,0-3.936-.725c0-2.566-.566-6.763-1.141-13.358-.575,6.6-1.114,10.793-1.141,13.358-1.627,0-4.29.878-8.464,1.8,4.175.906,6.837,1.757,8.464,1.785,0,2.58.566,45.68,1.141,52.262.575-6.582,1.114-49.682,1.141-52.262a20.864,20.864,0,0,0,3.971-.725c.212,13.526.54,30.286.884,34.19.345-3.932.672-20.832.884-34.386a25.94,25.94,0,0,0,4.767.92c0,2.58.566,45.68,1.132,52.262.584-6.582,1.123-49.682,1.141-52.262,1.627,0,4.29-.878,8.473-1.785C27.816,33.033,25.154,32.183,23.527,32.155Z"/>
      </g>
    </g>
  </g>
</svg>
