<svg xmlns="http://www.w3.org/2000/svg" xmlns:xlink="http://www.w3.org/1999/xlink" width="22" height="34" viewBox="0 0 22 34">
  <defs>
    <clipPath id="clip-img_4">
      <rect width="22" height="34"/>
    </clipPath>
  </defs>
  <g id="img_4" clip-path="url(#clip-img_4)">
    <g id="Layer_2" data-name="Layer 2" transform="translate(0)">
      <g id="Layer_1" data-name="Layer 1" transform="translate(0 0)">
        <path id="Path_933" data-name="Path 933" d="M21.646,10.254c-2.806-.4-5.012-.757-6.731-.972a.323.323,0,0,1-.269-.192.3.3,0,0,1,.052-.319c1.061-1.325,2.36-3.069,4.047-5.278a.3.3,0,0,0-.041-.4.333.333,0,0,0-.416-.03c-2.281,1.626-4.1,2.88-5.474,3.9a.333.333,0,0,1-.331.05.313.313,0,0,1-.2-.26c-.212-1.647-.583-3.785-1-6.49a.331.331,0,0,0-.652,0C10.221,2.971,9.85,5.1,9.627,6.756a.313.313,0,0,1-.2.26.333.333,0,0,1-.331-.05C7.723,5.943,5.914,4.69,3.623,3.063a.332.332,0,0,0-.415.039.3.3,0,0,0-.031.4C4.864,5.7,6.163,7.457,7.224,8.781a.3.3,0,0,1,.052.319.323.323,0,0,1-.269.192c-1.719.215-3.925.573-6.731.972a.316.316,0,0,0,0,.629c2.806.4,5.012.757,6.731.972a.323.323,0,0,1,.269.192.3.3,0,0,1-.052.319c-1.061,1.325-2.36,3.069-4.047,5.278a.3.3,0,0,0,.017.423.332.332,0,0,0,.439.017c2.275-1.626,4.1-2.88,5.474-3.9a.333.333,0,0,1,.331-.05.313.313,0,0,1,.2.26c.223,1.657.594,3.785,1.008,6.49a.331.331,0,0,0,.652,0c.414-2.706.785-4.833,1.008-6.49a.313.313,0,0,1,.2-.26.333.333,0,0,1,.331.05c1.374,1.023,3.183,2.276,5.474,3.9a.332.332,0,0,0,.439-.017.3.3,0,0,0,.017-.423c-1.687-2.2-2.986-3.954-4.047-5.278a.3.3,0,0,1-.052-.319.323.323,0,0,1,.269-.192c1.719-.215,3.925-.573,6.731-.972a.32.32,0,1,0-.021-.639Z" transform="translate(0.011 0.011)"/>
      </g>
    </g>
  </g>
</svg>
