<svg xmlns="http://www.w3.org/2000/svg" xmlns:xlink="http://www.w3.org/1999/xlink" width="80" height="32" viewBox="0 0 80 32">
  <defs>
    <clipPath id="clip-img_1">
      <rect width="80" height="32"/>
    </clipPath>
  </defs>
  <g id="img_1" clip-path="url(#clip-img_1)">
    <g id="Layer_2" data-name="Layer 2">
      <g id="Layer_1" data-name="Layer 1" transform="translate(0)">
        <path id="Path_75" data-name="Path 75" d="M40.3,26.063c1.842-6.118,3.536-7.9,9.4-9.817a.263.263,0,0,0,0-.492c-5.861-1.914-7.555-3.7-9.4-9.817a.233.233,0,0,0-.457,0c-1.842,6.118-3.536,7.9-9.4,9.817a.263.263,0,0,0,0,.492c5.861,1.914,7.555,3.7,9.4,9.817a.233.233,0,0,0,.458,0ZM79.988,16c0-8.834-17.879-16-39.926-16C53.478,0,64.371,7.166,64.371,16S53.49,32,40.074,32C62.121,32,80,24.834,80,16Zm-64.3,0C15.629,7.166,26.522,0,39.938,0,17.892,0,0,7.166,0,16H0c0,8.834,17.879,16,39.926,16-13.416,0-24.3-7.166-24.3-16Z" transform="translate(0)"/>
      </g>
    </g>
  </g>
</svg>
